<svg width="317" height="38" viewBox="0 0 317 38" fill="none" xmlns="http://www.w3.org/2000/svg">
    <path d="M4.59098 37L0.324977 0.819999H12.799L14.527 24.364H15.499L17.929 1.36H31.591L34.291 24.364H35.263L36.343 0.819999H48.925L44.929 37H26.623L24.841 14.752L24.301 14.698L22.465 37H4.59098ZM47.5611 37L55.5531 0.819999H74.5071L82.6611 37H70.0251L68.9991 32.842H60.7371L59.8731 37H47.5611ZM64.4091 10.648L62.3571 23.284H67.7031L65.7591 10.648H64.4091ZM108.239 37H83.9393V0.819999H96.4673V26.794H108.239V37ZM134.659 37H110.359V0.819999H122.887V26.794H134.659V37ZM151.34 37H138.812V25.66L128.498 0.819999H141.782L145.184 11.458L148.694 0.819999H161.924L151.34 25.66V37ZM165.642 37L161.376 0.819999H173.85L175.578 24.364H176.55L178.98 1.36H192.642L195.342 24.364H196.314L197.394 0.819999H209.976L205.98 37H187.674L185.892 14.752L185.352 14.698L183.516 37H165.642ZM223.542 18.91C223.542 21.97 223.83 24.184 224.406 25.552C225.018 26.884 226.26 27.55 228.132 27.55C230.04 27.55 231.282 26.884 231.858 25.552C232.434 24.22 232.722 22.006 232.722 18.91C232.722 15.778 232.434 13.564 231.858 12.268C231.318 10.936 230.094 10.27 228.186 10.27C226.278 10.27 225.018 10.954 224.406 12.322C223.83 13.654 223.542 15.85 223.542 18.91ZM245.358 18.91C245.358 25.498 243.99 30.286 241.254 33.274C238.518 36.226 234.144 37.702 228.132 37.702C222.156 37.702 217.782 36.208 215.01 33.22C212.274 30.232 210.906 25.462 210.906 18.91C210.906 12.322 212.274 7.552 215.01 4.6C217.746 1.612 222.12 0.117998 228.132 0.117998C234.144 0.117998 238.518 1.612 241.254 4.6C243.99 7.552 245.358 12.322 245.358 18.91ZM259.718 18.91C259.718 21.97 260.006 24.184 260.582 25.552C261.194 26.884 262.436 27.55 264.308 27.55C266.216 27.55 267.458 26.884 268.034 25.552C268.61 24.22 268.898 22.006 268.898 18.91C268.898 15.778 268.61 13.564 268.034 12.268C267.494 10.936 266.27 10.27 264.362 10.27C262.454 10.27 261.194 10.954 260.582 12.322C260.006 13.654 259.718 15.85 259.718 18.91ZM281.534 18.91C281.534 25.498 280.166 30.286 277.43 33.274C274.694 36.226 270.32 37.702 264.308 37.702C258.332 37.702 253.958 36.208 251.186 33.22C248.45 30.232 247.082 25.462 247.082 18.91C247.082 12.322 248.45 7.552 251.186 4.6C253.922 1.612 258.296 0.117998 264.308 0.117998C270.32 0.117998 274.694 1.612 277.43 4.6C280.166 7.552 281.534 12.322 281.534 18.91ZM299.836 37H284.014V0.819999H299.296C305.524 0.819999 310.006 2.224 312.742 5.032C315.478 7.84 316.846 12.34 316.846 18.532C316.846 24.688 315.532 29.314 312.904 32.41C310.276 35.47 305.92 37 299.836 37ZM304.21 19.126C304.21 15.886 303.868 13.726 303.184 12.646C302.536 11.566 301.06 11.026 298.756 11.026H296.542V26.794H298.756C300.628 26.794 302.014 26.326 302.914 25.39C303.778 24.454 304.21 22.366 304.21 19.126Z" fill="#D97852"/>
    </svg>
    